<svg width="20" height="18" viewBox="0 0 20 18" fill="none" xmlns="http://www.w3.org/2000/svg">
<path d="M17.1405 0.519531H1.93663C0.865933 0.519531 0 1.38703 0 2.45616V11.3C0 12.3707 0.867496 13.2366 1.93663 13.2366H8.47804V11.1171H2.11951V2.63904H16.9576V11.1186H10.5991V13.2381H17.1405C18.2112 13.2381 19.0771 12.3707 19.0771 11.3015V2.45616C19.0771 1.38703 18.2097 0.519531 17.1405 0.519531Z" fill="#444444"/>
<path d="M12.7192 15.3584H10.5997H8.48021H6.3607H4.23963H2.12012V17.4779H4.23963H6.3607H8.48021H10.5997H12.7192H14.8387H16.9582V15.3584H14.8387H12.7192Z" fill="#444444"/>
<path d="M8.78804 9.87627L10.287 8.37729L11.786 6.87832L10.287 5.37935L8.78804 3.88037L7.28906 5.37935L8.78804 6.87832L7.28906 8.37729L8.78804 9.87627Z" fill="#444444"/>
</svg>
