<svg width="20" height="18" viewBox="0 0 20 18" fill="none" xmlns="http://www.w3.org/2000/svg">
<path fill-rule="evenodd" clip-rule="evenodd" d="M4.25042 2.6449C4.25042 1.47169 5.20258 0.519531 6.37594 0.519531H17.0017C18.1732 0.519531 19.1254 1.47169 19.1272 2.6449V13.2703H17.0017V2.6449H6.37594V4.77026H12.7507C13.924 4.77026 14.8762 5.72242 14.8762 6.89562V15.3957H12.7507V6.89562H4.25103V9.01945L8.50146 9.01961C9.67481 9.01961 10.627 9.97177 10.627 11.145V15.3957C10.627 16.5675 9.67481 17.5195 8.50146 17.5195H2.12674C0.953388 17.5195 0.00122544 16.5675 0.00122544 15.3942L0 11.145C0 9.97177 0.952163 9.01961 2.12552 9.01945V6.89562C2.12552 5.72242 3.07768 4.77026 4.25042 4.77026V2.6449ZM2.12674 15.3942L8.50146 15.3957V11.145H2.12552L2.12674 15.3942Z" fill="#444444"/>
</svg>
