<svg width="574" height="788" viewBox="0 0 574 788" fill="none" xmlns="http://www.w3.org/2000/svg">
<path d="M946.882 370.34C941.671 370.34 931.85 370.743 926.639 371.55C804.779 386.063 668.087 302.61 648.445 142.357C638.824 62.5325 571.079 0.648438 489.104 0.648438C400.515 0.648438 328.561 72.8129 328.561 162.111C328.561 179.649 331.367 196.379 336.578 212.304C378.067 339.902 362.033 442.505 168.82 506.001C71.4114 538.253 0.660156 630.374 0.660156 739.629C0.660156 875.29 110.094 985.351 244.982 985.351C379.871 985.351 489.304 875.29 489.304 739.629C489.304 701.127 480.285 665.045 464.652 632.591C453.027 608.402 444.409 586.027 438.396 565.466C435.991 559.419 434.187 552.969 432.583 546.72C432.383 545.51 431.982 544.301 431.782 543.091C430.98 540.068 430.379 537.044 429.777 533.819C428.976 529.384 428.374 525.151 427.773 521.523C427.773 520.515 427.573 519.507 427.573 518.499C426.17 505.8 426.771 497.535 426.771 497.535C426.57 461.856 437.794 428.596 457.236 400.778C489.505 352.803 544.021 321.155 605.954 321.155C607.958 321.155 610.163 321.357 612.167 321.357C621.788 321.357 631.809 322.566 641.63 324.582C643.233 324.784 644.636 325.388 646.44 325.792C650.048 326.598 653.455 327.404 657.063 328.614C661.472 330.025 665.882 331.637 670.091 333.25C670.893 333.452 672.095 333.855 672.897 334.258C676.104 335.669 679.311 337.08 682.517 338.491C700.957 346.957 718.394 358.044 734.028 371.146C735.631 372.557 737.034 373.767 738.838 374.976C740.441 376.387 742.245 377.798 743.648 379.209C784.335 414.082 811.393 463.065 821.615 517.289C832.438 574.537 882.344 618.078 942.673 618.078C1010.62 618.078 1065.94 562.644 1065.94 494.108C1065.94 425.572 1015.83 371.953 947.484 370.542" fill="#F5F5F5"/>
<path d="M728.397 500.983C728.397 569.317 673.279 624.549 605.534 624.549C537.79 624.549 482.672 569.115 482.672 500.983C482.672 432.85 537.79 377.416 605.534 377.416C673.279 377.416 728.397 432.85 728.397 500.983Z" fill="#F5F5F5"/>
</svg>
